<?xml version="1.0" encoding="UTF-8" standalone="no"?>
<svg width="681px" height="3401px" viewBox="0 0 681 3401" version="1.1" xmlns="http://www.w3.org/2000/svg" xmlns:xlink="http://www.w3.org/1999/xlink" xmlns:sketch="http://www.bohemiancoding.com/sketch/ns">
    <!-- Generator: Sketch 3.0.2 (7799) - http://www.bohemiancoding.com/sketch -->
    <title>pencil-icons-sprite</title>
    <description>Created with Sketch.</description>
    <defs>
        <linearGradient x1="115.908599%" y1="28.4596732%" x2="-12.4543846%" y2="71.5426144%" id="linearGradient-1">
            <stop stop-color="#79756E" offset="0%"></stop>
            <stop stop-color="#FEFBF4" offset="90%"></stop>
        </linearGradient>
        <linearGradient x1="-16.3988151%" y1="71.5707843%" x2="111.90081%" y2="28.5147059%" id="linearGradient-2">
            <stop stop-color="#79756E" offset="0%"></stop>
            <stop stop-color="#FEFBF4" offset="90%"></stop>
        </linearGradient>
    </defs>
    <g id="Page-1" stroke="none" stroke-width="1" fill="none" fill-rule="evenodd" sketch:type="MSPage">
        <g id="pencil-icons-sprite" sketch:type="MSLayerGroup">
            <g id="Group" transform="translate(211.000000, 0.000000)" fill="#66615B" sketch:type="MSShapeGroup">
                <path d="M108.2,198.5 C106.8,198.5 105.7,197.4 105.7,196 C105.7,194.6 106.8,193.5 108.2,193.5 C109.6,193.5 110.7,194.6 110.7,196 C110.7,197.3 109.6,198.5 108.2,198.5 L108.2,198.5 Z M99.8,190.2 C98.4,190.2 97.3,189.1 97.3,187.7 C97.3,186.3 98.4,185.2 99.8,185.2 C101.2,185.2 102.3,186.3 102.3,187.7 C102.4,189.1 101.2,190.2 99.8,190.2 L99.8,190.2 Z M91.6,132 C90.2,132 89.1,130.9 89.1,129.5 C89.1,128.1 90.2,127 91.6,127 C93,127 94.1,128.1 94.1,129.5 C94,130.9 92.9,132 91.6,132 L91.6,132 Z M91.6,148.6 C90.2,148.6 89.1,147.5 89.1,146.1 C89.1,144.7 90.2,143.6 91.6,143.6 C93,143.6 94.1,144.7 94.1,146.1 C94,147.5 92.9,148.6 91.6,148.6 L91.6,148.6 Z M91.6,165.2 C90.2,165.2 89.1,164.1 89.1,162.7 C89.1,161.3 90.2,160.2 91.6,160.2 C93,160.2 94.1,161.3 94.1,162.7 C94,164.1 92.9,165.2 91.6,165.2 L91.6,165.2 Z M91.6,181.9 C90.2,181.9 89.1,180.8 89.1,179.4 C89.1,178 90.2,176.9 91.6,176.9 C93,176.9 94.1,178 94.1,179.4 C94,180.7 92.9,181.9 91.6,181.9 L91.6,181.9 Z M91.6,198.5 C90.2,198.5 89.1,197.4 89.1,196 C89.1,194.6 90.2,193.5 91.6,193.5 C93,193.5 94.1,194.6 94.1,196 C94,197.3 92.9,198.5 91.6,198.5 L91.6,198.5 Z M83.2,140.8 C81.6,140.8 80.3,139.5 80.3,137.9 C80.3,136.3 81.6,135 83.2,135 C84.8,135 86.1,136.3 86.1,137.9 C86.2,139.4 84.8,140.8 83.2,140.8 L83.2,140.8 Z M83.2,157.4 C81.6,157.4 80.3,156.1 80.3,154.5 C80.3,152.9 81.6,151.6 83.2,151.6 C84.8,151.6 86.1,152.9 86.1,154.5 C86.2,156.1 84.8,157.4 83.2,157.4 L83.2,157.4 Z M83.2,174 C81.6,174 80.3,172.7 80.3,171.1 C80.3,169.5 81.6,168.2 83.2,168.2 C84.8,168.2 86.1,169.5 86.1,171.1 C86.2,172.7 84.8,174 83.2,174 L83.2,174 Z M83.2,190.6 C81.6,190.6 80.3,189.3 80.3,187.7 C80.3,186.1 81.6,184.8 83.2,184.8 C84.8,184.8 86.1,186.1 86.1,187.7 C86.2,189.3 84.8,190.6 83.2,190.6 L83.2,190.6 Z M74.9,133.2 C72.9,133.2 71.2,131.5 71.2,129.5 C71.2,127.5 72.8,125.8 74.9,125.8 C77,125.8 78.6,127.5 78.6,129.5 C78.6,131.5 76.9,133.2 74.9,133.2 L74.9,133.2 Z M71.2,146.1 C71.2,144.1 72.8,142.4 74.9,142.4 C77,142.4 78.6,144.1 78.6,146.1 C78.6,148.1 77,149.8 74.9,149.8 C72.9,149.8 71.2,148.1 71.2,146.1 L71.2,146.1 Z M74.9,166.4 C72.9,166.4 71.2,164.7 71.2,162.7 C71.2,160.7 72.8,159 74.9,159 C77,159 78.6,160.7 78.6,162.7 C78.6,164.8 76.9,166.4 74.9,166.4 L74.9,166.4 Z M71.2,179.4 C71.2,177.4 72.8,175.7 74.9,175.7 C77,175.7 78.6,177.4 78.6,179.4 C78.6,181.4 77,183.1 74.9,183.1 C72.9,183 71.2,181.4 71.2,179.4 L71.2,179.4 Z M74.9,199.6 C72.9,199.6 71.2,197.9 71.2,195.9 C71.2,193.9 72.8,192.2 74.9,192.2 C77,192.2 78.6,193.9 78.6,195.9 C78.6,198 76.9,199.6 74.9,199.6 L74.9,199.6 Z M66.6,141.7 C64.5,141.7 62.7,139.9 62.7,137.8 C62.7,135.7 64.5,133.9 66.6,133.9 C68.8,133.9 70.5,135.7 70.5,137.8 C70.5,140 68.8,141.7 66.6,141.7 L66.6,141.7 Z M66.6,158.4 C64.5,158.4 62.7,156.6 62.7,154.5 C62.7,152.4 64.5,150.6 66.6,150.6 C68.8,150.6 70.5,152.4 70.5,154.5 C70.5,156.6 68.8,158.4 66.6,158.4 L66.6,158.4 Z M66.6,175 C64.5,175 62.7,173.2 62.7,171.1 C62.7,169 64.5,167.2 66.6,167.2 C68.8,167.2 70.5,169 70.5,171.1 C70.5,173.2 68.8,175 66.6,175 L66.6,175 Z M66.6,191.6 C64.5,191.6 62.7,189.8 62.7,187.7 C62.7,185.6 64.5,183.8 66.6,183.8 C68.8,183.8 70.5,185.6 70.5,187.7 C70.5,189.8 68.8,191.6 66.6,191.6 L66.6,191.6 Z M58.3,200.8 C55.6,200.8 53.4,198.6 53.4,195.9 C53.4,193.2 55.6,191 58.3,191 C61,191 63.2,193.2 63.2,195.9 C63.1,198.7 61,200.8 58.3,200.8 L58.3,200.8 Z M44.6,187.7 C44.6,184.7 47,182.3 50,182.3 C53,182.3 55.4,184.7 55.4,187.7 C55.4,190.7 53,193.1 50,193.1 C47,193.1 44.6,190.6 44.6,187.7 L44.6,187.7 Z M44.6,171 C44.6,168 47,165.6 50,165.6 C53,165.6 55.4,168 55.4,171 C55.4,174 53,176.4 50,176.4 C47,176.4 44.6,174 44.6,171 L44.6,171 Z M44.6,154.4 C44.6,151.4 47,149 50,149 C53,149 55.4,151.4 55.4,154.4 C55.4,157.4 53,159.8 50,159.8 C47,159.8 44.6,157.4 44.6,154.4 L44.6,154.4 Z M44.6,137.8 C44.6,134.8 47,132.4 50,132.4 C53,132.4 55.4,134.8 55.4,137.8 C55.4,140.8 53,143.2 50,143.2 C47,143.2 44.6,140.8 44.6,137.8 L44.6,137.8 Z M58.3,151 C55.6,151 53.4,148.8 53.4,146.1 C53.4,143.4 55.6,141.2 58.3,141.2 C61,141.2 63.2,143.4 63.2,146.1 C63.1,148.8 61,151 58.3,151 L58.3,151 Z M63.1,179.4 C63.1,182.1 60.9,184.3 58.2,184.3 C55.5,184.3 53.3,182.1 53.3,179.4 C53.3,176.7 55.5,174.5 58.2,174.5 C61,174.5 63.1,176.7 63.1,179.4 L63.1,179.4 Z M58.3,167.6 C55.6,167.6 53.4,165.4 53.4,162.7 C53.4,160 55.6,157.8 58.3,157.8 C61,157.8 63.2,160 63.2,162.7 C63.1,165.4 61,167.6 58.3,167.6 L58.3,167.6 Z M58.3,124.6 C61,124.6 63.2,126.8 63.2,129.5 C63.2,132.2 61,134.4 58.3,134.4 C55.6,134.4 53.4,132.2 53.4,129.5 C53.4,126.8 55.6,124.6 58.3,124.6 L58.3,124.6 Z M176.4,186.1 C158.5,204 129.5,204 111.6,186.1 C93.7,168.3 93.7,139.3 111.6,121.4 L207.4,25.7 C185.9,9.6 159,0 129.8,0 C60.9,0 4.5,53.6 0,121.3 L8.4,121.3 C13,121.3 16.6,125 16.6,129.6 L16.6,129.7 L16.7,129.7 C17.1,129.7 17.5,129.7 17.9,129.8 L17.9,129.6 C17.9,125.6 21.1,122.4 25.1,122.4 C29.1,122.4 32.3,125.6 32.3,129.6 C32.3,130.3 32.1,130.9 32,131.6 C32.5,131.5 33,131.4 33.5,131.4 C34.6,131.4 35.6,131.7 36.5,132.2 C36.1,131.4 35.9,130.5 35.9,129.6 C35.9,126.3 38.5,123.7 41.8,123.7 C45.1,123.7 47.7,126.3 47.7,129.6 C47.7,132.8 45.1,135.5 41.8,135.5 C40.9,135.5 40,135.2 39.2,134.9 C39.7,135.8 40,136.8 40,137.9 C40,139 39.7,140 39.2,140.9 C40,140.5 40.8,140.3 41.8,140.3 C45.1,140.3 47.7,142.9 47.7,146.2 C47.7,149.4 45.1,152.1 41.8,152.1 C40.9,152.1 40,151.8 39.2,151.5 C39.7,152.4 40,153.4 40,154.5 C40,155.6 39.7,156.6 39.2,157.5 C40,157.1 40.8,156.9 41.8,156.9 C45.1,156.9 47.7,159.5 47.7,162.8 C47.7,166 45.1,168.7 41.8,168.7 C40.9,168.7 40,168.4 39.2,168.1 C39.7,169 40,170 40,171.1 C40,172.2 39.7,173.2 39.2,174.1 C40,173.7 40.8,173.5 41.8,173.5 C45.1,173.5 47.7,176.1 47.7,179.4 C47.7,182.6 45.1,185.3 41.8,185.3 C40.9,185.3 40,185 39.2,184.7 C39.7,185.6 40,186.6 40,187.7 C40,188.8 39.7,189.8 39.2,190.7 C40,190.3 40.8,190.1 41.8,190.1 C45.1,190.1 47.7,192.7 47.7,196 C47.7,199.2 45.1,201.9 41.8,201.9 C38.5,201.9 35.9,199.2 35.9,196 C35.9,195.1 36.1,194.2 36.5,193.4 C35.6,193.9 34.6,194.2 33.5,194.2 C33,194.2 32.5,194.1 32,194 C32.2,194.6 32.3,195.3 32.3,196 C32.3,199.9 29.1,203.1 25.1,203.1 L22.3,203.1 C45.7,237.4 85.2,260 129.9,260 C201.8,260 260.1,201.8 260.1,130 C260.1,121.4 259.2,113.1 257.7,105.1 L176.4,186.1 L176.4,186.1 Z" id="Shape"></path>
                <path d="M25,172.2 C25.7,172.2 26.4,172.3 27,172.5 C26.9,172 26.8,171.6 26.8,171 C26.8,170.5 26.9,170 27,169.5 C26.4,169.7 25.7,169.8 25,169.8 L24.8,169.8 C24.9,170.2 24.9,170.6 24.9,171 C24.9,171.4 24.9,171.8 24.8,172.2 L25,172.2 L25,172.2 Z" id="Shape"></path>
                <path d="M25,155.6 C25.7,155.6 26.4,155.7 27,155.9 C26.9,155.4 26.8,155 26.8,154.4 C26.8,153.9 26.9,153.4 27,152.9 C26.4,153.1 25.7,153.2 25,153.2 L24.8,153.2 C24.9,153.6 24.9,154 24.9,154.4 C24.9,154.8 24.9,155.2 24.8,155.6 L25,155.6 L25,155.6 Z" id="Shape"></path>
                <path d="M25,188.8 C25.7,188.8 26.4,188.9 27,189.1 C26.9,188.6 26.8,188.2 26.8,187.6 C26.8,187.1 26.9,186.6 27,186.1 C26.4,186.3 25.7,186.4 25,186.4 L24.8,186.4 C24.9,186.8 24.9,187.2 24.9,187.6 C24.9,188 24.9,188.4 24.8,188.8 L25,188.8 L25,188.8 Z" id="Shape"></path>
                <path d="M25,139 C25.7,139 26.4,139.1 27,139.3 C26.9,138.8 26.8,138.4 26.8,137.8 C26.8,137.3 26.9,136.8 27,136.3 C26.4,136.5 25.7,136.6 25,136.6 L24.8,136.6 C24.9,137 24.9,137.4 24.9,137.8 C24.9,138.2 24.9,138.6 24.8,139 L25,139 L25,139 Z" id="Shape"></path>
                <path d="M33.3,164.5 C34.4,164.5 35.4,164.8 36.3,165.3 C35.9,164.5 35.7,163.6 35.7,162.7 C35.7,161.8 35.9,160.9 36.3,160.1 C35.4,160.6 34.4,160.9 33.3,160.9 C32.8,160.9 32.3,160.8 31.8,160.7 C32,161.3 32.1,162 32.1,162.7 C32.1,163.4 31.9,164 31.8,164.7 C32.3,164.6 32.8,164.5 33.3,164.5 L33.3,164.5 Z" id="Shape"></path>
                <path d="M33.3,177.6 C32.8,177.6 32.3,177.5 31.8,177.4 C32,178 32.1,178.7 32.1,179.4 C32.1,180.1 31.9,180.7 31.8,181.4 C32.3,181.3 32.8,181.2 33.3,181.2 C34.4,181.2 35.4,181.5 36.3,182 C35.9,181.2 35.7,180.3 35.7,179.4 C35.7,178.5 35.9,177.6 36.3,176.8 C35.4,177.3 34.4,177.6 33.3,177.6 L33.3,177.6 Z" id="Shape"></path>
                <path d="M170.2,127.7 C187.7,145.1 174.6,160.9 170.2,165.3 C158.9,176.5 155.2,179 154.1,179.5 C151.6,178.8 143.2,173.4 133.2,164.1 C123.1,154.6 118.6,147.6 118.6,145 C118.6,145 119.3,141 132.5,127.7 C138.9,121.3 145.2,118 151.3,118 C157.4,118 163.8,121.3 170.2,127.7 L170.2,127.7 Z M127.3,122.5 C111.2,138.5 111.2,143.1 111.2,144.9 C111.2,152.1 120.4,162.2 128.2,169.5 C129,170.2 146.9,186.9 154.3,186.9 C156.7,186.9 160.2,185.6 175.4,170.5 C193.1,152.8 187,134.1 175.4,122.5 C159.7,106.8 143,106.8 127.3,122.5 L127.3,122.5 Z" id="Shape"></path>
                <path d="M33.3,147.9 C34.4,147.9 35.4,148.2 36.3,148.7 C35.9,147.9 35.7,147 35.7,146.1 C35.7,145.2 35.9,144.3 36.3,143.5 C35.4,144 34.4,144.3 33.3,144.3 C32.8,144.3 32.3,144.2 31.8,144.1 C32,144.7 32.1,145.4 32.1,146.1 C32.1,146.8 31.9,147.4 31.8,148.1 C32.3,148 32.8,147.9 33.3,147.9 L33.3,147.9 Z" id="Shape"></path>
            </g>
            <g id="Group" transform="translate(212.000000, 390.000000)" fill="#66615B" sketch:type="MSShapeGroup">
                <path d="M9,183.4 C10.1,185.9 11.3,188.3 12.6,190.7 L75,190.7 C74.3,189.3 71.7,183.4 52.3,183.4 L9,183.4 L9,183.4 Z" id="Shape"></path>
                <path d="M93.9,53 L101.4,45.5 C102.9,44 105.4,44 107,45.5 L157.5,96 L131.5,96 L94,58.5 C92.3,57 92.3,54.5 93.9,53 L93.9,53 Z M220.2,158.6 L223.7,162.1 C226.2,166.7 230.3,175.7 230.6,176.4 C231.2,177.6 231.7,179.9 230.1,181.4 C228.6,183 226.3,182.5 225,181.9 C224.3,181.6 215.1,177.4 210.5,174.9 L209.6,174 L209.4,173.8 L202.2,166.7 C203,164.3 203.4,161.7 203.4,158.9 C203.4,156.7 203.2,154.8 202.8,153.1 C205.6,152.2 207.9,150.5 209.6,148.1 L220.2,158.6 L220.2,158.6 Z M41.7,104.9 C51.8,104.9 60.1,102.2 69,95.2 C77.8,88.2 86.9,80.9 97.8,80.9 L105.6,80.9 L120.8,96 L116.8,96 C114.8,96 113.1,97.6 113.1,99.7 C113.1,101.7 114.7,103.4 116.8,103.4 L206.4,103.4 C212.9,103.4 215.3,108.1 215.3,112.1 C215.3,116.5 212.5,121.2 206.4,121.2 L164.2,121.2 C162.2,121.2 160.5,122.8 160.5,124.9 C160.5,127 162.1,128.6 164.2,128.6 L202.8,128.6 C204.2,129.6 206.3,135.5 204.8,141 C203.4,146.5 199.5,146.5 198.2,146.5 L164.1,146.5 C162.1,146.5 160.4,148.2 160.4,150.2 C160.4,152.2 162,153.9 164.1,153.9 L195.3,153.9 C196.2,156 196.6,162.1 194.7,166.3 C193.2,169.3 191.4,169.3 190.7,169.3 L158,169.3 C156,169.3 154.3,171 154.3,173 C154.3,175 155.9,176.7 158,176.7 L183.3,176.7 C183.4,180.4 183,185.6 180.5,188.5 C179.1,190.1 177.2,190.9 174.6,190.9 L243,190.9 C252.6,172.8 258,152.1 258,130.2 C258,58.4 199.7,0.2 127.8,0.2 C64.5,-2.03448369e-14 11.7,45.1 0,104.9 L41.7,104.9 L41.7,104.9 Z" id="Shape"></path>
                <path d="M17.8,199.5 C40.9,235.9 81.5,260 127.8,260 C174.1,260 214.7,235.9 237.8,199.5 L17.8,199.5 L17.8,199.5 Z" id="Shape"></path>
            </g>
            <g id="Connect" transform="translate(221.000000, 1180.000000)" sketch:type="MSShapeGroup">
                <circle id="Oval" fill="#555048" cx="120" cy="120" r="120"></circle>
                <path d="M120,10.7 C59.7,10.7 10.7,59.6 10.7,120 C10.7,180.4 59.6,229.3 120,229.3 C180.3,229.3 229.3,180.4 229.3,120 C229.3,59.6 180.3,10.7 120,10.7 L120,10.7 Z M120,188.6 C82.1,188.6 51.4,157.9 51.4,120 C51.4,82.1 82.1,51.4 120,51.4 C157.9,51.4 188.6,82.1 188.6,120 C188.6,157.9 157.9,188.6 120,188.6 L120,188.6 Z" id="Shape" fill="#FEFBF4"></path>
                <path d="M174.9,78.8 C197.6,109.1 191.5,152.2 161.2,174.9 L185.6,207.4 C233.9,171.2 243.7,102.7 207.5,54.4 L174.9,78.8 L174.9,78.8 Z" id="Shape" fill="url(#linearGradient-1)"></path>
                <path d="M53.9,32.6 C6.9,68.8 -4,137.3 32.2,185.6 L64.9,161.2 L64.9,161.3 C41.9,131 48.5,87.5 78.8,65.5 L78.8,65.5 L53.9,32.7 L53.9,32.6 L53.9,32.6 Z" id="Shape" fill="url(#linearGradient-2)"></path>
                <path d="M54.5,32.6 L78.9,65.1 C109.2,42.4 152.3,48.5 175,78.8 L175,78.8 C181.7,87.8 194.5,89.6 203.4,82.9 C212.4,76.2 214.2,63.4 207.5,54.5 C171.2,6.2 102.7,-3.6 54.5,32.6 L54.5,32.6 Z" id="Shape" fill="#FEFBF4"></path>
                <path d="M161.2,174.9 C130.9,197.6 87.8,191.5 65.1,161.2 C58.4,152.2 45.6,150.4 36.7,157.1 C27.7,163.8 25.9,176.6 32.6,185.5 C68.8,233.8 137.3,243.6 185.6,207.4 L185.6,207.4 L161.2,174.9 L161.2,174.9 Z" id="Shape" fill="#FEFBF4"></path>
                <path d="M120,51 C158.1,51 189,81.9 189,120 C189,158.1 158.1,189 120,189 C81.9,189 51,158.1 51,120 C51,81.9 81.9,51 120,51 L120,51 Z" id="Shape" fill="#555048"></path>
                <g id="Icon" transform="translate(84.000000, 78.000000)" fill="#FEFBF4">
                    <path d="M23.3,34.1 L23.3,34.1 L17,40.4 L17,57.4 C17,60.7 19.7,63.4 23,63.4 L40.6,63.4 L42.3,61.7 L42.6,61.5 C42.6,61.5 64.8,39.3 74.8,29.3 L51.5,6 L23.3,34.1 L23.3,34.1 Z" id="Shape"></path>
                    <path d="M0.7,69.8 C-0.3,72 -1.2,76.1 1.5,78.9 C4.3,81.7 8.4,81.1 10.6,80.1 C11.8,79.5 24.7,72.5 33,68.5 L22.9,68.5 C17.1,68.5 12.5,63.4 12.5,57.7 L12.5,48.2 C8.1,56.3 1.3,68.6 0.7,69.8 L0.7,69.8 Z" id="Shape"></path>
                    <path d="M77.9,14.5 L72,8.6 L66.1,2.7 C61.7,-1.7 56.1,1.4 54.7,2.6 L77.9,25.8 C79.2,24.5 82.3,18.9 77.9,14.5 L77.9,14.5 Z" id="Shape"></path>
                </g>
            </g>
            <g id="Battery__x26__Devices" transform="translate(176.000000, 1601.000000)" fill="#534F49" sketch:type="MSShapeGroup">
                <path d="M217.7,100.4 L217.7,93.1 L141.2,93.1 L160.9,113.5 C162.6,114.8 163.9,115.6 166.2,115.6 C178,115.6 181.3,115.4 181.3,115.4 L181.3,109.3 L201.6,109.3 L201.6,129.6 L181.3,129.6 L181.3,121.5 L167.2,121.5 C162.7,121.5 159,119.3 156.1,116.4 C156.3,116.6 157,116.6 157,116.5 L157,116.6 C157,116.5 135.3,95 135.3,95 C133.6,93.7 130.6,93.1 128.3,93.1 L103.5,93.1 L103.4,93.1 L92.1,93.1 C90.6,101.2 84,105.9 75.9,105.9 C66.8,105.9 59.4,98.3 59.4,89.2 C59.4,80.1 66.8,72.2 75.9,72.2 C83.9,72.2 90.6,76.8 92.1,84.9 L103.5,84.9 C105.7,84.9 107.9,84.3 109.6,83 L130.5,61.2 C130.7,61 130.6,61.4 130.5,61.5 C133.4,58.7 138.1,56.6 142.5,56.6 L158.8,56.6 C160.1,52.5 163.8,49.7 168.1,49.7 C173.5,49.7 178,54 178,59.5 C178,64.9 173.6,69.3 168.1,69.3 C163.8,69.3 160.2,66.5 158.8,62.7 L142.3,62.7 C140,62.7 137.8,63.3 136.2,64.6 L116.5,85 L217.7,85 L217.7,77.7 L237.4,89.1 L217.7,100.4 L217.7,100.4 Z M306.9,52.5 L282.6,52.5 L282.6,7.9 C282.6,3.4 279,-0.2 274.5,-0.2 L23.1,-0.2 C18.6,-0.2 15,3.4 15,7.9 L15,170.1 C15,174.6 18.6,178.2 23.1,178.2 L274.5,178.2 C279,178.2 282.6,174.6 282.6,170.1 L282.6,125.5 L306.9,125.5 C311.4,125.5 315,121.8 315,117.4 L315,60.6 C315,56.1 311.4,52.5 306.9,52.5 L306.9,52.5 Z" id="Shape"></path>
                <path d="M323.6,420.1 L279.6,420.1 L279.6,390.1 C279.6,380.5 278,378.9 268.6,378.9 L76.1,378.9 C66.7,378.9 65.1,380.5 65.1,390.1 L65.1,411 L7.5,411 C1.1,411 0,412.1 0,418.7 L0,522.8 C0,529.4 1.1,530.5 7.5,530.5 L34,530.5 L34,567.9 C34,577.5 35.6,579.1 45,579.1 L208.1,579.1 C217.5,579.1 219.1,577.4 219.1,567.9 L219.1,552.8 L268.7,552.8 C278.1,552.8 279.7,551.1 279.7,541.6 L279.7,521.4 L323.7,521.4 C329.1,521.4 330.1,520.5 330.1,514.9 L330.1,426.6 C330,421 329,420.1 323.6,420.1 L323.6,420.1 Z M34,462.5 L34,517.6 L11.7,517.6 L11.7,423.1 L65.1,423.1 L65.1,451.3 L45,451.3 C35.6,451.3 34,452.9 34,462.5 L34,462.5 Z M198.7,570.2 L51.8,570.2 L51.8,460.2 L198.7,460.2 L198.7,570.2 L198.7,570.2 Z M209.1,519.7 C206.6,519.7 204.6,517.7 204.6,515.2 C204.6,512.7 206.6,510.7 209.1,510.7 C211.6,510.7 213.6,512.7 213.6,515.2 C213.6,517.7 211.6,519.7 209.1,519.7 L209.1,519.7 Z M261.5,534.6 L219,534.6 L219,462.5 C219,452.9 217.4,451.3 208,451.3 L82.5,451.3 L82.5,397 L261.6,397 L261.6,534.6 L261.5,534.6 L261.5,534.6 Z M270.8,470.4 C268.3,470.4 266.3,468.4 266.3,465.9 C266.3,463.4 268.3,461.4 270.8,461.4 C273.2,461.4 275.2,463.4 275.2,465.9 C275.2,468.3 273.2,470.4 270.8,470.4 L270.8,470.4 Z M319.3,510.5 L279.7,510.5 L279.7,430.3 L319.3,430.3 L319.3,510.5 L319.3,510.5 Z" id="Shape"></path>
            </g>
            <g id="Group" transform="translate(0.000000, 3174.000000)" fill="#534F49" sketch:type="MSShapeGroup">
                <path d="M432.1,127.5 C434.3,117.5 437.5,101.2 437.5,86 C437.5,69.5 431.8,48.6 428.9,41 C426,33.5 413.5,0.5 413.5,0.5 C413.3,0 413,-0.4 412.6,-0.4 C412.2,-0.4 411.9,-0.1 411.7,0.4 C411.7,0.4 399.2,33.2 396.3,40.7 C393.4,48.3 387.7,69.5 387.7,86 C387.7,100.9 390.8,117.5 393.1,127.5 L432.1,127.5 L432.1,127.5 Z" id="Shape"></path>
                <path d="M391.5,135.2 L391.5,140.5 L433.5,140.5 L433.5,135.2 C433.5,133.6 432.5,132.3 430.5,132.3 L430.5,133.5 L394.2,133.5 L394.3,132.9 C392.7,132.9 391.5,133.6 391.5,135.2 L391.5,135.2 Z" id="Shape"></path>
                <path d="M433.9,146.5 L391.2,146.5 C390.6,159.5 388.4,191.5 386.9,226.5 L438.1,226.5 C436.6,191.5 434.4,159.5 433.9,146.5 L433.9,146.5 Z" id="Shape"></path>
                <path d="M297.9,12.4 C297.4,11.1 296.7,9.8 295.3,9.8 C293.9,9.8 293.1,11.2 292.7,12.5 C292.7,12.5 287.5,25.6 286.6,28.6 L304.1,28.6 C303.1,25.5 297.9,12.4 297.9,12.4 L297.9,12.4 Z" id="Shape"></path>
                <path d="M316.5,83.4 C311.1,62.8 309.8,36.4 309.8,36.4 C309.8,36.4 310,34.5 308.1,34.5 L305.1,34.5 L305.1,34.5 L285.9,34.5 L282.6,34.5 C280.7,34.5 280.9,36.2 280.9,36.2 C280.9,36.2 279.6,62.8 274.2,83.4 C270.8,96.3 266.7,106.4 264.1,111.4 L326.8,111.4 C324,106.5 319.9,96.3 316.5,83.4 L316.5,83.4 Z" id="Shape"></path>
                <rect id="Rectangle-path" x="261" y="132" width="69" height="95"></rect>
                <path d="M328.5,117 L329.2,117.5 L261.4,117.5 C261.4,117.5 260.5,116.9 260.5,117 L260.5,125.5 L328.5,125.5 L328.5,117 L328.5,117 Z" id="Shape"></path>
                <rect id="Rectangle-path" x="109" y="149" width="103" height="78"></rect>
                <path d="M212.8,139.4 C212,132.2 196.6,87.9 193.7,78.5 C190.9,69.1 189.2,45.4 189.2,40.9 C189.2,36.4 184.7,35.7 183.4,35.7 L181.4,35.7 L181.4,36.5 L141.4,36.5 L141.4,35.7 L139.9,35.7 C138.6,35.7 134.8,36.4 134.8,40.9 C134.8,45.4 133.2,69.1 130.4,78.4 C127.6,87.8 112.2,132.3 111.4,139.4 C111.3,140.6 111.2,142.5 111.2,142.5 L213.1,142.5 C213,142.5 213,140.6 212.8,139.4 L212.8,139.4 Z" id="Shape"></path>
                <path d="M181.5,29.7 C181.5,18.6 172.6,9.6 161.5,9.6 C150.4,9.6 141.5,18.6 141.5,29.7 L141.5,30.5 L181.5,30.5 L181.5,29.7 L181.5,29.7 Z" id="Shape"></path>
                <path d="M46.8,50.8 L34.8,8.4 L22.8,50.8 C26.6,50.6 30.7,50.5 34.8,50.5 C38.9,50.5 43,50.6 46.8,50.8 L46.8,50.8 Z" id="Shape"></path>
                <path d="M17.4,119.4 C17.8,120.5 19.4,121.5 20,121.5 C20.4,121.4 21.9,120.4 25.7,115.5 C26.3,114.7 26.7,114.2 26.9,114.1 C28.9,112.3 31.8,111.3 34.9,111.3 C38,111.3 40.9,112.3 42.9,114.1 C43,114.2 43.4,114.6 44,115.2 C48.1,119.7 49.8,121.1 50.5,121.4 C51,121.2 52,120.4 52.4,119.3 C54.2,114.9 58,111.8 61.7,111.8 C62.6,111.8 63.5,112 64.3,112.3 L48.6,56.7 C44.4,56.5 39.6,56.4 34.9,56.4 C30.2,56.4 25.4,56.5 21.2,56.7 L5.5,112.3 C6.4,112 7.3,111.8 8.1,111.8 C11.9,111.9 15.6,114.9 17.4,119.4 L17.4,119.4 Z" id="Shape"></path>
                <path d="M66.5,124.4 C65.5,120.6 63.3,117.6 61.1,117.6 C60.1,117.6 58,119 57,121.5 C56.3,123.4 54.5,125.3 52.5,126.4 L52.5,226.5 L66.5,226.5 L66.5,124.4 L66.5,124.4 Z" id="Shape"></path>
                <path d="M46.5,126.5 C44.5,125.5 42.7,123.2 39.1,119.1 C38.8,118.8 38.8,118.5 38.7,118.4 C36.9,116.8 32.5,116.7 30.6,118.5 C30.6,118.5 29.8,118.8 29.5,119.1 C26.4,123.2 23.6,126 20.6,126.9 L20.6,226.5 L46.6,226.5 L46.6,126.5 L46.5,126.5 Z" id="Shape"></path>
                <path d="M14.5,126.1 C12.5,125.1 11.9,123.4 11.2,121.5 C10.3,119.3 9.1,117.7 7.7,117.7 C6.2,117.7 2.5,120.1 1.2,123.8 L0.5,124.1 L0.5,226.5 L14.5,226.5 L14.5,126.1 L14.5,126.1 Z" id="Shape"></path>
                <path d="M583.5,101.1 C557.5,101.1 536.4,122.3 536.4,148.3 C536.4,174.3 557.6,195.4 583.5,195.4 C609.5,195.4 630.6,174.2 630.6,148.3 C630.7,122.3 609.5,101.1 583.5,101.1 L583.5,101.1 Z" id="Shape"></path>
                <path d="M557,193.8 C541.3,184.6 530.8,167.7 530.8,148.2 C530.8,119.1 554.5,95.4 583.6,95.4 C612.7,95.4 636.4,119.1 636.4,148.2 C636.4,167.6 625.8,184.6 610.2,193.8 C651.3,182.2 681.4,144.5 681.4,99.7 C681.4,45.7 637.6,2 583.7,2 C529.7,2 486,45.7 486,99.7 C485.8,144.5 515.9,182.2 557,193.8 L557,193.8 Z" id="Shape"></path>
            </g>
            <path d="M440.2,2451.8 L439.5,2452.4 L434.8,2457.1 L430,2457.1 L381.1,2457.1 C377.9,2457.1 375,2455.9 372.7,2453.6 C370.5,2451.4 369.2,2448.4 369.2,2445.2 L369.2,2398 L369.2,2393.2 L386.7,2375.7 L423.1,2339.2 C400.6,2320.4 371.6,2309 339.8,2309 C274.1,2309 219.7,2357.8 211,2421.2 C218.7,2430.9 231.2,2437.2 251.6,2431.2 C286.6,2421 315.3,2386.5 353.4,2400.8 C340.6,2424.5 316.6,2471 314.8,2474.6 C312.1,2480.3 310.4,2487.8 311.7,2495 C304.7,2488.3 296.4,2487.7 289.7,2487.7 C277.2,2487.7 266.2,2495.8 251.6,2495.8 C235.3,2495.8 224,2488.7 216.1,2479.3 C233.1,2531.4 282,2569 339.7,2569 C411.5,2569 469.7,2510.8 469.7,2439 C469.7,2433.6 469.3,2428.4 468.7,2423.2 C452.6,2439.4 440.2,2451.8 440.2,2451.8 L440.2,2451.8 Z M349,2505.3 C345.9,2506.8 341.5,2508.2 336.8,2508.2 C332.3,2508.2 327.5,2506.9 323.7,2503.1 C318.1,2497.5 317.9,2489.9 319.3,2483.8 L319.3,2483.7 C319.5,2483 319.7,2482.3 319.9,2481.6 L319.9,2481.5 C320.1,2480.9 320.3,2480.4 320.5,2479.8 C320.6,2479.7 320.6,2479.5 320.7,2479.4 C320.9,2478.8 321.1,2478.3 321.4,2477.8 C321.4,2477.7 321.5,2477.6 321.6,2477.4 C321.7,2477.3 321.7,2477.1 321.8,2477 C321.8,2476.9 321.9,2476.8 321.9,2476.7 C322,2476.6 322,2476.4 322.1,2476.3 C322.2,2476.1 322.3,2475.9 322.4,2475.7 C322.5,2475.6 322.6,2475.4 322.6,2475.2 C322.7,2475 322.8,2474.8 322.9,2474.6 C323,2474.3 323.2,2474 323.3,2473.7 C323.4,2473.5 323.5,2473.3 323.6,2473.1 C323.7,2472.8 323.9,2472.5 324.1,2472.2 C324.2,2472 324.3,2471.8 324.4,2471.6 C324.7,2471.1 324.9,2470.6 325.2,2470.1 C325.2,2470.1 325.2,2470.1 325.2,2470 C325.5,2469.5 325.8,2468.9 326.1,2468.3 C326.2,2468.2 326.2,2468.1 326.3,2467.9 C326.6,2467.4 326.9,2466.8 327.2,2466.2 C327.3,2466.1 327.3,2466 327.3,2465.9 C327.6,2465.3 327.9,2464.8 328.2,2464.2 C328.3,2463.9 328.5,2463.7 328.6,2463.4 C328.9,2462.8 347.8,2426.5 356,2411 C356,2410.9 356.1,2410.9 356.1,2410.8 C356.5,2410 356.9,2409.2 357.3,2408.5 C357.3,2408.4 357.4,2408.4 357.4,2408.3 C357.8,2407.5 358.2,2406.7 358.6,2406 C358.6,2406 358.6,2405.9 358.7,2405.9 C359.1,2405.2 359.5,2404.5 359.8,2403.8 C359.8,2403.7 359.9,2403.7 359.9,2403.6 L359.9,2403.6 C360.5,2402.5 361.1,2401.4 361.6,2400.4 L361.6,2447.6 C361.6,2456.8 369,2464.2 378.2,2464.2 L378.2,2464.2 L427.2,2464.2 C404.4,2476.9 352.4,2503.7 349,2505.3 L349,2505.3 Z" id="Shape" fill="#66615B" sketch:type="MSShapeGroup"></path>
            <path d="M468.6,885.2 L385.5,968.3 L336.7,919.5 L321.7,904.5 L321.7,904.5 C332,894.2 380.9,845.3 419.7,806.5 C397.8,789.9 370.6,780 341,780 C269.2,780 211,838.2 211,910 C211,923.8 213.2,937 217.1,949.5 L314.9,949.5 L343.9,978.5 C344.3,978.9 344.7,979.2 345.1,979.6 L231.2,979.6 C254.3,1015.9 294.8,1040.1 341,1040.1 C412.8,1040.1 471,981.9 471,910.1 C471,901.5 470.2,893.2 468.6,885.2 L468.6,885.2 Z M325.3,949.5 L325.3,949.5 L316.7,940.9 C316,940.2 315.4,939.5 314.8,938.8 C314.7,938.6 314.5,938.4 314.4,938.3 C314,937.7 313.6,937.2 313.2,936.6 C313.1,936.4 313,936.3 312.9,936.1 C312.1,934.6 311.5,933.2 311.1,931.7 C311.1,931.5 311,931.4 311,931.2 C310.8,930.6 310.7,929.9 310.6,929.3 L310.6,929 C310.5,928.2 310.4,927.4 310.4,926.7 L310.4,926.7 C310.4,925.8 310.4,924.9 310.5,924 C310.5,923.8 310.5,923.6 310.6,923.5 C310.7,922.8 310.8,922.1 310.9,921.5 C310.9,921.3 311,921.1 311,920.9 C311.2,920.3 311.3,919.6 311.5,919 C311.6,918.8 311.6,918.7 311.7,918.5 C312.2,917 312.8,915.6 313.4,914.4 C313.5,914.2 313.6,914 313.7,913.8 C313.9,913.4 314.1,913.1 314.3,912.7 C314.4,912.5 314.5,912.3 314.7,912.1 C314.9,911.8 315.1,911.5 315.3,911.2 C315.4,911.1 315.5,910.9 315.6,910.8 C315.9,910.4 316.1,910.1 316.4,909.8 L318.4,911.8 L380.2,973.6 C377.8,975.6 371.2,979.6 363.7,979.6 C363.7,979.6 363.7,979.6 363.6,979.6 L363.2,979.6 L363.2,979.6 L362.9,979.6 C358.3,979.4 353.5,977.8 349,973.4 L325.3,949.5 L325.3,949.5 Z" id="Shape" fill="#66615B" sketch:type="MSShapeGroup"></path>
        </g>
    </g>
</svg>
